<svg id="I_Empresa" xmlns="http://www.w3.org/2000/svg" xmlns:xlink="http://www.w3.org/1999/xlink" width="595" height="699" viewBox="0 0 595 699">
  <defs>
    <style>
      .cls-1 {
        fill: #047957;
      }

      .cls-1, .cls-10, .cls-11, .cls-12, .cls-13, .cls-14, .cls-15, .cls-16, .cls-17, .cls-18, .cls-19, .cls-2, .cls-20, .cls-21, .cls-22, .cls-23, .cls-3, .cls-4, .cls-5, .cls-6, .cls-7, .cls-8, .cls-9 {
        fill-rule: evenodd;
      }

      .cls-2 {
        fill: #036952;
      }

      .cls-3 {
        fill: #c1d0f5;
      }

      .cls-4 {
        fill: #d5dff9;
      }

      .cls-5 {
        fill: #f48625;
      }

      .cls-6 {
        fill: #fafafa;
      }

      .cls-7 {
        fill: #c8825f;
      }

      .cls-8 {
        fill: #465e9c;
      }

      .cls-9 {
        fill: #d3f6d8;
      }

      .cls-10 {
        fill: #6076af;
      }

      .cls-11 {
        fill: #798dc2;
      }

      .cls-12 {
        fill: #fff;
      }

      .cls-13 {
        fill: #d6986e;
      }

      .cls-14 {
        fill: #343662;
      }

      .cls-15 {
        fill: #4a2106;
      }

      .cls-16 {
        fill: #141637;
      }

      .cls-17 {
        fill: #8d6767;
      }

      .cls-18 {
        fill: #16183b;
      }

      .cls-19 {
        fill: #974b31;
      }

      .cls-20 {
        fill: #e8eeff;
      }

      .cls-21 {
        fill: url(#linear-gradient);
      }

      .cls-22 {
        fill: #334880;
      }

      .cls-23 {
        fill: #8a9fd3;
      }
    </style>
    <linearGradient id="linear-gradient" x1="124.531" y1="604.281" x2="581" y2="147.812" gradientUnits="userSpaceOnUse">
      <stop offset="0" stop-color="#0a756a"/>
      <stop offset="0.479" stop-color="#1aa35d"/>
      <stop offset="1" stop-color="#5ce940"/>
    </linearGradient>
  </defs>
  <path id="Curvas_2" data-name="Curvas 2" class="cls-1" d="M530,325c1.137-41.044-29.727-137.326-197-174C143.247,109.4,98.017,208.955,119,277c15.078,48.9,111.289,42.5,222,60s185.713,94.709,98,185C519.288,452.235,528.945,363.088,530,325ZM137,655c0.724,8.782,27.5,29.5,95,27s62.231-30.1,48-40c-29.307-20.385-65.715-4.569-69,5-4.72,13.747,17,19,34,14s13-10.5,2-10c10.645-7.205,31.29,10.591-5,18-49.017,10.007-115.069-19.553-74-53C144.969,598.237,136.282,646.3,137,655Z"/>
  <g id="Silla">
    <path id="Silla_2" data-name="Silla 2" class="cls-1" d="M163.544,378.9c-11.774-11.262-70.015-7.017-105.113,11.6C13.538,414.316,30.5,427.815,35.907,430.087c8.564,3.6,87.538,160.742,91.463,192.481s95.046-22.866,89.415-51.192S175.319,390.157,163.544,378.9Z"/>
    <path id="Silla_1" data-name="Silla 1" class="cls-2" d="M29.081,418.483c0.565,5.461,9.73,15.072,60.748,16.382,10.8,0.277,17.182,0,23.207,10.921s40.048,108.953,45.732,152.892-29.233,38.65-39.589,11.6S78.333,496.771,30.446,428.722C26,422.4,28.516,413.023,29.081,418.483Z"/>
  </g>
  <g id="Cuerpo">
    <path id="Brazo_2" data-name="Brazo 2" class="cls-3" d="M225.657,364.561c19.623,5.717,23.378,3.84,35.493,20.477s60.577,60.833,62.112,62.113,3.243-4.01,5.461-4.778,3.242,3.5,6.143,2.73,19.282-19.709,31.4-33.445,17.917-29.606,17.746-33.446,3.925-10.494,9.556-14.333,12.115-5.376,25.254-1.365,9.556,15.7,9.556,15.7a56.717,56.717,0,0,0-2.73,12.969c-0.512,6.74-.341,5.887-5.46,9.556s-18.43,25.34-43,55.287-34.469,30.459-41.635,30.715-48.432-17.907-69.621-39.588c-19.453-18.933-37.029-40.442-38.906-52.557S206.034,358.845,225.657,364.561Z"/>
    <path id="Camisa" class="cls-4" d="M252.959,402.1c5.138,34.473,23.9,99.158,55.97,137.194,14.184,16.823-78.374,60.543-91.87,54.57C199.967,586.3,164.365,530.1,141.7,477.183c-34.239-79.954-18.713-102.27-11.6-109.209s8.584-.408,21.842-13.651c5.839-5.833,52.727.427,72.351,6.143s22.69,6.315,25.937,14.334C253.037,381.735,254.635,394.975,252.959,402.1Z"/>
    <path id="Corbata" class="cls-5" d="M188.8,375.482c-0.043,3.754,10.622,15.7,13.651,15.016-1.2,1.736-2.63,7.476-2.048,14.334,6.189,72.889,32.229,146.345,40.894,162.513,9.021,16.832,58.461-14.526,41.013-32.827s-33.463-56.955-61.43-137.877c-1.637-4.738-2.688-8.83-4.778-8.873,2.541-2.889,7.21-15.656,6.143-19.111s-3.37-8.66-6.825-5.461-15.315,2.944-21.16,1.365S188.841,371.728,188.8,375.482Z"/>
    <path id="Forma_12" data-name="Forma 12" class="cls-6" d="M406.534,337.259c-6.143,1.621-3.754,3.157-7.508,12.286s-6.825,11.348-4.778,16.382,7.508,8.958,17.747,11.6,18.087,2.133,20.477-2.73,6.825-16.638,9.555-19.794-2.221-10.154-15.7-15.017C416.552,336.462,412.677,335.638,406.534,337.259Z"/>
    <path id="Mano_2" data-name="Mano 2" class="cls-7" d="M425.646,280.607c-9.556.939-13.651,0.085-15.016-15.7s-6.826-34.384-20.477-28.667-6.143,30.117-.682,38.905,7.507,20.9,8.19,32.763,1.909,21.14,8.873,24.572c2,0.983,2.731,6.229,1.365,10.239s22.744,13.132,26.62,7.508c7.4-10.742,22.866-7.082,27.3-21.842S472.06,288.2,480.25,279.242s20.136-25.852,14.334-36.176-18.429-9.812-27.3,6.826S435.2,279.668,425.646,280.607Z"/>
    <g id="Calculadora">
      <path id="Forma_13" data-name="Forma 13" class="cls-8" d="M462.5,318.83c-0.683,3.925-8.191,7-10.921,7.508s-40.842-9.05-50.509-11.6c-3.663-.968-4.181-0.768-4.1-6.826s6.1-75.087,7.509-92.145c0.611-7.4,2.645-8.276,7.508-8.873s34.536,1.469,52.557,2.048c5.973,0.191,8.859,1.948,10.238,3.412,1.427,1.515,3.14,3.531,4.095,4.778,1.191,1.554,2.048,3.185,1.365,7.508S463.187,314.9,462.5,318.83Z"/>
      <path id="Pantalla" class="cls-9" d="M410.886,211.63l55.16,4.4c1.341,0.107,2.2,1.7,1.917,3.554l-2.222,14.494c-0.273,1.787-1.556,3.115-2.86,2.973L409.13,231.2c-1.116-.121-1.9-1.558-1.757-3.214l1.173-13.418C408.7,212.858,409.742,211.539,410.886,211.63Z"/>
      <path id="Rectángulo_redondeado_5_copia_3" data-name="Rectángulo redondeado 5 copia 3" class="cls-10" d="M409.805,237.292l5.656,0.666c1.817,0.213,3.08,2.527,2.815,5.152l-0.418,4.127c-0.262,2.585-1.928,4.47-3.713,4.224l-5.561-.765c-1.748-.241-2.979-2.487-2.756-5.032l0.355-4.062C406.409,239.019,408.027,237.083,409.805,237.292Zm13.971,1.644,5.892,0.693c1.893,0.223,3.179,2.584,2.865,5.258l-0.5,4.2c-0.309,2.632-2.074,4.547-3.933,4.291l-5.789-.8c-1.819-.25-3.071-2.541-2.8-5.132l0.426-4.136C420.21,240.686,421.925,238.718,423.776,238.936Zm14.982,1.762,6.164,0.726c1.977,0.232,3.287,2.644,2.918,5.371l-0.579,4.286c-0.363,2.683-2.236,4.629-4.177,4.362l-6.052-.833c-1.9-.261-3.172-2.6-2.855-5.24l0.506-4.215C435.005,242.473,436.826,240.471,438.758,240.7Z"/>
      <path id="Rectángulo_redondeado_5_copia_4" data-name="Rectángulo redondeado 5 copia 4" class="cls-5" d="M454.1,242.5l6.42,0.755c2.064,0.243,3.4,2.707,2.972,5.487l-0.669,4.369c-0.42,2.736-2.407,4.714-4.432,4.435l-6.3-.867c-1.979-.273-3.277-2.661-2.907-5.351l0.59-4.295C450.152,244.3,452.084,242.267,454.1,242.5Z"/>
      <path id="Rectángulo_redondeado_5_copia_8" data-name="Rectángulo redondeado 5 copia 8" class="cls-11" d="M408.324,253.556l5.54,0.786c1.779,0.253,3.019,2.519,2.763,5.048l-0.4,3.978c-0.252,2.491-1.88,4.271-3.63,3.989l-5.448-.879c-1.713-.276-2.922-2.478-2.707-4.932l0.342-3.917C405,255.139,406.582,253.309,408.324,253.556Zm13.681,1.941,5.767,0.818c1.852,0.263,3.114,2.576,2.811,5.15l-0.475,4.048c-0.3,2.535-2.021,4.341-3.842,4.048l-5.667-.914c-1.782-.287-3.012-2.532-2.754-5.029l0.411-3.985C418.517,257.1,420.193,255.24,422.005,255.5Zm14.659,2.08,6.029,0.856c1.932,0.274,3.217,2.635,2.863,5.258L445,267.814c-0.349,2.583-2.177,4.416-4.075,4.11l-5.92-.955c-1.857-.3-3.109-2.59-2.8-5.133l0.487-4.058C433,259.2,434.775,257.309,436.664,257.577Zm15,2.129,6.273,0.89c2.017,0.286,3.325,2.7,2.916,5.369l-0.644,4.2c-0.4,2.63-2.34,4.491-4.318,4.172l-6.158-.993c-1.935-.312-3.209-2.65-2.853-5.239l0.568-4.133C447.81,261.343,449.694,259.426,451.665,259.706Zm-44.719,8.981,5.432,0.894c1.744,0.287,2.964,2.51,2.716,4.952l-0.388,3.84c-0.244,2.406-1.837,4.09-3.553,3.776l-5.344-.98c-1.68-.308-2.869-2.469-2.662-4.84l0.331-3.784C403.688,270.139,405.238,268.406,406.946,268.687Zm13.413,2.207,5.65,0.929c1.815,0.3,3.055,2.566,2.763,5.05l-0.459,3.905c-0.288,2.447-1.973,4.154-3.757,3.827L419,283.587c-1.746-.32-2.955-2.523-2.707-4.933l0.4-3.848C416.943,272.359,418.582,270.6,420.359,270.894Zm14.361,2.362,5.9,0.971c1.892,0.312,3.155,2.626,2.813,5.154l-0.537,3.976c-0.337,2.49-2.122,4.221-3.981,3.88l-5.8-1.063c-1.819-.333-3.049-2.58-2.755-5.033l0.471-3.916C431.132,274.736,432.869,272.952,434.72,273.256Zm14.684,2.416,6.138,1.01c1.972,0.324,3.257,2.687,2.863,5.261l-0.62,4.046c-0.388,2.534-2.279,4.288-4.215,3.933l-6.027-1.1c-1.894-.348-3.146-2.64-2.8-5.135l0.548-3.985C445.636,277.164,447.476,275.355,449.4,275.672ZM405.615,283.3l5.329,0.994c1.71,0.319,2.909,2.5,2.67,4.859l-0.375,3.71c-0.236,2.325-1.8,3.92-3.479,3.575l-5.244-1.073c-1.649-.338-2.818-2.459-2.618-4.752l0.32-3.658C402.421,284.633,403.939,282.991,405.615,283.3Zm13.154,2.453,5.539,1.033c1.779,0.332,3,2.556,2.716,4.953l-0.443,3.771c-0.278,2.363-1.927,3.976-3.675,3.619l-5.448-1.115c-1.713-.351-2.9-2.513-2.661-4.842l0.383-3.717C415.424,287.1,417.028,285.431,418.769,285.756Zm14.075,2.625,5.782,1.078c1.853,0.346,3.093,2.615,2.763,5.054l-0.518,3.835c-0.325,2.4-2.07,4.037-3.891,3.664l-5.683-1.163c-1.782-.365-2.991-2.569-2.707-4.937l0.454-3.78C429.333,289.728,431.031,288.043,432.844,288.381Zm20.349,27.567c-0.362,2.358-2.165,3.918-4.022,3.5l-5.779-1.3c-1.817-.409-3.026-2.615-2.707-4.939l2.521-18.342c0.336-2.444,2.133-4.152,4.021-3.8l6.006,1.12c1.93,0.36,3.192,2.675,2.812,5.156Zm-48.865-18.517,5.229,1.087c1.679,0.348,2.857,2.49,2.627,4.77l-0.363,3.586c-0.228,2.247-1.757,3.757-3.408,3.385l-5.147-1.16c-1.619-.365-2.77-2.449-2.576-4.666l0.31-3.539C401.2,298.646,402.684,297.089,404.328,297.431Zm12.906,2.681,5.432,1.129c1.743,0.362,2.942,2.545,2.67,4.861l-0.429,3.642c-0.268,2.283-1.881,3.809-3.6,3.422l-5.343-1.2c-1.681-.379-2.85-2.5-2.618-4.753l0.371-3.593C413.955,301.332,415.526,299.758,417.234,300.112Zm13.8,2.868,5.666,1.177c1.816,0.377,3.035,2.6,2.716,4.957l-0.5,3.7c-0.314,2.32-2.02,3.862-3.8,3.46l-5.571-1.256c-1.748-.393-2.937-2.557-2.662-4.845l0.438-3.651C427.6,304.2,429.256,302.611,431.033,302.98Z"/>
    </g>
    <path id="Cuello_camisa" data-name="Cuello camisa" class="cls-12" d="M170.37,332.481c-8.475.683-14.5,3.186-15.7,6.826s-5.176,9.555-7.508,12.968-1.763,12.741,12.286,23.89,22.126,14.333,24.572,15.016,4.835,1.138,5.46-3.413,8.246-23.717,12.969-23.889a12.133,12.133,0,0,1,6.143,1.365c1.807-2.3,2.351-4.108,6.143-1.365,3.919,2.833,9.308,10.338,11.6,16.381,1.305,3.437,2.787,1.593,2.73-4.778s-3-15.626-5.461-19.111c-7.392-10.477-9.5-15.244-21.159-18.429S178.845,331.8,170.37,332.481Z"/>
    <path id="Cuello" class="cls-13" d="M218.831,321.56c-5.119,9.471-8.531,30.459-8.19,34.811s-3.072.426-2.731,6.825c-4.918-5.4-3.754-6.74-13.651-6.143s-31.92-10.09-32.08-13.651c-0.5-11.18-1.024-29.606-7.508-34.81S223.951,312.09,218.831,321.56Z"/>
    <path id="Arrugas" class="cls-3" d="M220.879,486.056c-2.218,5.233-3.47,13.651-6.826,12.969S223.1,480.823,220.879,486.056Z"/>
  </g>
  <g id="Cabeza">
    <path id="Ojos" class="cls-14" d="M90.108,260.6c-24.948,7.084-79.54-73.2-74.621-97.45,3.029-14.928,8.787-18.994,11.187-26.488C25.4,126.5,22.526,105.905,28.547,97.11c11.706-17.1,55.256-47.862,87.318-72.155C160.229-8.66,291.97,10.713,303.585,41.522c4.771,12.658,1.328,31.887-1.131,36.308,10.019,8.531,15.023,26.421,9.355,35.289s-19.535,21.19-28.636,25.982S104.96,256.387,90.108,260.6Z"/>
    <path id="Cabeza-2" data-name="Cabeza" class="cls-13" d="M86.231,221.988c0.647-22.789,21.981-41.763,17.991-51.45S83.8,92.174,118.414,79.533c23.753-8.674,41.171,4.314,106.144-2.986,30.85-3.466,35.3-8.314,38.3-11.468s41.078,33.849,50.291,139.864c5.945,68.421-19.9,111.247-77.492,124.5-39.716,9.141-105.835-16.6-130.406-46.309-5.321,16.225-43.693,7.733-58.572-23.311C31.827,228.834,52.77,193.933,86.231,221.988Z"/>
    <path id="Ojos-2" data-name="Ojos" class="cls-15" d="M185.573,200.475c18.781-2.721,5.581-56.767-12.056-48.278C159.153,159.111,172.744,202.334,185.573,200.475Zm102.8-20.886c12.241-2.158,1.92-38.694-7.79-37.05C268.744,144.545,277.409,181.522,288.376,179.589Z"/>
    <path id="Cejas" class="cls-16" d="M145.637,125.562c1.508,0.583,4.751-6.067,19.838-15.578,26.961-17,40.127-8.983,40.632-10.941,0.968-3.755-8.8-16.06-17.721-16.6-4.8-.291-18.55,1.226-32.7,17.588C147.293,109.738,143.279,124.651,145.637,125.562Zm122.031-7.3c-3.984-1.374,3.015-17.464,7.2-18.311,2.085-.423,9.035,2.63,14.868,8.8,8.041,8.508,10.078,17.635,8.413,18.192-1.557.521-.605-2.656-11.979-6.5C272.819,115.939,269.744,118.977,267.668,118.26Z"/>
    <path id="Dientes" class="cls-12" d="M256.051,255.328c-11.866,2.634-47.735-9.893-58.379-17.722-11.842-8.71-14.106,18.29.667,27.667,14.465,9.182,37.634,9.668,43.7,6.461C247.01,269.105,244.138,263.73,256.051,255.328Z"/>
    <path id="Barba" class="cls-17" d="M313.58,205.452c7.486,65.891-19.193,112.624-77.491,124.5-50.047,10.2-111.359-19.806-130.407-46.308,1.38-20.978-14.593-57.888-18.584-61.056,13.951,3.14,26.341,31.529,62.113,23.889,10.3-2.2,4.028-25.852,32.08-33.445s65.462,0.317,70.906,14.256c1.34,3.434,5.238,1.079,8.607-1.174,11.389-7.621,38.439.007,37.8,11.654C298.182,245.311,315.533,228.718,313.58,205.452ZM196.99,227.368c5.991,0.636,20.893,8.6,46.413,13.651,16.588,3.282,21.5-1.381,25.937,4.095,3.125,3.852-.766,10.109-4.716,21.345-7.779,22.125-22.294,34.562-46.475,29.847C160.764,285.115,165.713,224.043,196.99,227.368Z"/>
    <path id="Lentes" class="cls-18" d="M267.6,133.077c12.2-10.148,48.543-9.073,51.644-1.375,3.763,9.345,4.932,40.357-.269,48.671-4.243,6.784-17.448,7.508-23.708,6.536-13.953-1.88-27.552-33.19-29.695-37.463-4.523-9.015-26.674-5.14-27.919,4.926-1.936,15.66-4.06,33.6-13.754,41.249-8.353,6.593-22.32,9.237-46.846,12.643-26.318,3.654-40.711-37.417-40.711-37.417L71.832,213.226s-5.731-1.216-9.312-1.721c8.475-5.229,42.624-29.9,71.279-49.852-0.931-14.09,47.756-40.16,80.254-31.891,6.554,1.667,15.061,6.774,17.358,6.449,2.593-.366,8.582-2.575,16.354-3.366,9.562-.974,13.312-0.028,15.963,1.328C264.7,134.668,266.293,134.165,267.6,133.077Zm-45.357,8.971c-15.452-14.948-77.281,3.943-79.008,21.316-0.907,9.126,15.719,39.8,28.714,39.757,14.181-.05,41.985-3.359,49.811-12.129C232.946,178.459,228.619,148.214,222.244,142.048Zm50.248-5.255C265.3,142.938,284,179.9,292.842,181.98c7.707,1.81,21.19.863,23.591-5.128,3.542-8.838,1.414-41.006-3.057-42.8C300.784,128.991,277.418,132.583,272.492,136.793Z"/>
    <path id="Nariz" class="cls-19" d="M263.417,154.948c3.619,1.956,34.848,34.282,36.312,40.842,1.871,8.383-26.839,25.533-28.91,23.6-0.256-.239,5.134-2.679,10.321-7.2,6.76-5.9,13.75-14.305,13.307-15.411-0.363-.908-7.3-11.29-14.851-21C270.861,164.536,261.476,153.9,263.417,154.948Z"/>
  </g>
  <g id="Brazo">
    <path id="Brazo_1" data-name="Brazo 1" class="cls-20" d="M316.8,370.752c-8.532.853-15.358,4.266-15.7,7.508S283.7,421.091,277.9,427.4s-40.612,47.95-44.366,49.827-6.825-.853-9.556.682-1.706,3.584-3.412,4.778-2.389-2.9-4.778-2.73a39.82,39.82,0,0,0-4.778.682s-42.293-37.041-53.24-87.367c-4.806-22.1-20.476-32.251-30.032-25.937s-15.358,31.415,5.46,68.938c41.135,74.139,79.518,97.094,86,98.971s9.465,0.655,19.8-7.508c24.145-19.08,53.214-51.4,84.637-101.018,6.206-9.8,16.722-19.965,17.064-25.938S325.334,369.9,316.8,370.752Z"/>
    <path id="Manga" class="cls-12" d="M335.913,341.4c-6.33-3.966-10.835-2.3-13.651,4.1s-6.74,13.737-10.92,17.747,1.45,19.879,10.92,27.985,21.245,7.934,23.89,4.1,8.958-12.542,11.6-15.7,1.792-10.836-2.73-19.794S344.08,346.518,335.913,341.4Z"/>
    <path id="Mano_1" data-name="Mano 1" class="cls-13" d="M484.711,299.766c4.493-5,11.939-12.7,4.778-23.889-5.165-8.07-16.325-.91-27.3,5.46s-23.378,10.011-21.842,22.525,10.921,8.873,10.921,8.873-10.864,5.233-6.143,15.7,20.306,6.456,33.445-2.73S490.231,301.987,484.711,299.766ZM331.136,344.132c3.583-11.376,17.12-35.493,29.35-48.461s25.853-26.033,33.445-39.588c5.705-10.187,20.181-5.905,23.889,3.412,3.164,7.949.645,20.8-9.555,27.985-2.752,1.94-8.245,6.961-10.179,10.558,21.348,3.386,22.473,30.7,18.369,33.808,4.3,11.367,2.178,19.261-7.508,27.3-15.775,13.1-27.221,4.33-24.572-4.777-10.836,9.991-14.015,14.8-29.35,17.746C334.484,376.062,327.552,355.508,331.136,344.132Z"/>
    <path id="Orillas" class="cls-19" d="M399.391,297.718c-8.28-2.279-24.315.492-21.841,4.1C378.432,303.1,385.036,297.717,399.391,297.718Zm17.747,34.128c-1.877-5.09-6.529-11.281-12.969-12.286-7.235-1.128-12.115.825-11.6,2.731s4.688-1.611,10.921-.683C408.974,322.425,413.231,324.567,417.138,331.846Zm-32.08,21.842c3.583-3.384,11.091-7.195,10.238-10.238S381.474,357.072,385.058,353.688Zm99.653-53.239c-6.315,8.221-27.772,13.438-34.128,12.968C457.366,312.237,478.349,305.249,484.711,300.449Z"/>
  </g>
  <path id="Curvas_1" data-name="Curvas 1" class="cls-21" d="M478,219c34.133,36.489,93.18,94.767-34,209-76.758,68.944-260.72,150.123-295,163-40.069,15.051-29,78,19,84-51.626-14.622-14.813-39.259,26-52,111.714-34.876,223-63,283-131s57-143,55-175S512.26,246.463,478,219ZM239,648c17.62-.23,28.5,7,17,15s-44.911,2.591-49-10c-4.16-12.808,19.5-22.5,44-21C217.009,633.993,220.029,648.248,239,648ZM535,238c-2-46.912-51.494-93.159-130-116-44.609-12.979-23.428-51.305,21-44,60.728,9.985,126.81,77.741,117,156C541.83,243.33,535.254,243.987,535,238Zm20,17c3.329-10.109,5.509-41.974,5-56-0.753-20.728,21.642-22.017,21-4-1.114,31.218-13.825,54.277-19,61C558.715,260.267,552.892,261.4,555,255Z"/>
  <g id="Libro">
    <path id="Forma_14" data-name="Forma 14" class="cls-22" d="M583.859,477.53c-37.212,22.887-89.369,72.658-102.383,88.732-3.034,3.747-6.314,1.2-19.794,9.556s-12.457,10.75-18.43,12.968-110.476,38.58-149.479,67.574c-5.651,4.2-11.092-.853-23.207-4.1S144.01,608.2,129.959,605.85c-1.929-.322-2.971-5.12.683-6.825,21.994-10.267,111.019-38.149,197.941-52.557,3.2-1.943,17.064-14.334,17.064-14.334s61.259-75.251,74.4-74.4,157.5,12.115,162.448,12.968S587.479,475.3,583.859,477.53Z"/>
    <path id="Luz" class="cls-12" d="M549.049,421.56c-34.455-12.639-153.544,3.65-166.544,10.239-27.779,14.079-53.235,94.477-51.192,95.557,7.154,3.783,119.448,27.3,119.448,27.3S554.432,423.535,549.049,421.56ZM425.506,562.849c-23.092-3.067-101.767-20.106-109.892-21.159-88.564-11.479-168.25,17.917-165.178,24.572s141.972,40.953,141.972,40.953S438.147,564.529,425.506,562.849Z"/>
    <path id="Sombra" class="cls-3" d="M149.071,565.58c2.048,3.583,1.706,11.432,2.048,12.968s2.73,3.584,4.095,4.1,4.436,3.583,2.048,5.46-1.366.853,1.364,5.461,2.729,6.662,4.778,7.508c6.336,2.614,112.112,34.125,115.353,35.492,2.567,1.084,5.024,2.479,6.825.683,6.068-6.049,106.258-57.094,150.162-59.382-9.434-4.125-9.527-10.521-8.873-14.334-3.373-.976-53.173-2.081-138.559,27.985C276.066,584.3,161.948,565.357,149.071,565.58Zm412.264-98.971c-30.613,13.3-92.98,88.7-99.653,101.018-1.149,2.12-117.055-25.531-126.273-27.985-2.633-.7,5.279-8.838-3.413-11.6C321.82,524.8,431.207,543.915,447.528,548.3c3.09-24.613,59.608-122.916,100.156-127.423,0.717-.08,5.306,8.139,8.8,19.344C560.08,451.763,562.488,466.108,561.335,466.609Z"/>
    <path id="Arrugas-2" data-name="Arrugas" class="cls-23" d="M162.722,583.326c12.8,2.3,95.674,19.668,111.939,32.08-17.749-8.349-103.35-26.012-110.574-27.3C162.24,587.774,149.924,581.022,162.722,583.326Zm382.356-144.2c-11.617,8.16-57.733,45.806-89.608,112.206a20.43,20.43,0,0,1,3.8,3.428c15.8-28.8,49.215-66.49,51.553-68.36,2.559-2.048,6.08-.068,2.73,2.73-8.256,6.9-34.614,34.612-53.02,67.334a12.106,12.106,0,0,1,1.828,9.113c-0.26,1.326-2.858,2.6-2.73,0s-0.514-11.988-12.286-17.747a18.031,18.031,0,0,1,6.786,2.628c37.883-75.443,83.3-112.148,89.454-113.885C545.615,436,547.674,437.306,545.078,439.129ZM422.776,568.31c-28.175,4.469-97.435,22.61-109.209,28.667C328.185,586.1,410.847,563.924,422.776,568.31Z"/>
    <path id="Aros" class="cls-8" d="M440.522,537.6c-3.957-5.486-15.605-10.4-26.619-3.413-10.838,6.872-11.011,20.392-8.9,26.989,0.25,0.78-3.391,1.678-4.074-.369s-3.723-21.715,11.6-30.033c15.29-8.3,25.193-.714,29.349,4.1C443.353,536.56,441.475,538.916,440.522,537.6Zm-50.509-6.826c-3.957-5.486-15.6-10.4-26.62-3.413-10.837,6.872-11.011,20.392-8.894,26.989,0.25,0.78-3.392,1.679-4.074-.369s-3.723-21.715,11.6-30.032c15.291-8.3,25.193-.715,29.35,4.1C392.844,529.735,390.966,532.09,390.013,530.769ZM348.377,521.9c-3.957-5.486-15.605-10.4-26.619-3.413-10.838,6.872-11.011,20.392-8.895,26.989,0.25,0.78-3.392,1.678-4.074-.369s-3.724-21.715,11.6-30.033c15.291-8.3,25.193-.714,29.35,4.1C351.208,520.862,349.33,523.217,348.377,521.9Z"/>
  </g>
</svg>
